<?xml version="1.0" standalone="no"?>
<!DOCTYPE svg PUBLIC "-//W3C//DTD SVG 20010904//EN"
 "http://www.w3.org/TR/2001/REC-SVG-20010904/DTD/svg10.dtd">
<svg version="1.0" xmlns="http://www.w3.org/2000/svg"
 width="700.000000pt" height="700.000000pt" viewBox="0 0 700.000000 700.000000"
 preserveAspectRatio="xMidYMid meet">
<metadata>
Created by potrace 1.14, written by Peter Selinger 2001-2017
</metadata>
<g transform="translate(0.000000,700.000000) scale(0.100000,-0.100000)"
fill="#000000" stroke="none">
<path d="M3295 6990 c-1144 -72 -2160 -678 -2767 -1650 -273 -438 -445 -936
-504 -1465 -22 -200 -22 -550 0 -750 90 -799 437 -1526 1001 -2090 572 -573
1292 -919 2100 -1011 199 -22 548 -22 750 0 799 89 1527 438 2095 1006 568
568 914 1289 1005 2095 23 200 23 549 0 750 -53 475 -204 946 -430 1342 -471
825 -1241 1421 -2147 1662 -341 91 -758 133 -1103 111z m1455 -1525 l0 -525
-465 0 -465 0 0 -490 0 -490 415 0 415 0 0 -495 0 -495 -415 0 -415 0 -2
-1092 -3 -1093 -677 -3 -678 -2 0 2605 0 2605 1145 0 1145 0 0 -525z"/>
</g>
</svg>
