<?xml version="1.0" encoding="UTF-8"?>
<svg id="Camada_2" xmlns="http://www.w3.org/2000/svg" viewBox="0 0 334.21 129.93">
  <g isolation="isolate">
    <g isolation="isolate">
      <path d="M.02,0h42.47v19.3h-17.39v18.29h15.49v18.35h-15.49v40.51H.02V0Z" fill="#f5811e"/>
      <path d="M102.37,58.32h-31.16v17.1c0,3.57.26,5.88.77,6.91.52,1.03,1.51,1.55,2.98,1.55,1.83,0,3.05-.68,3.66-2.06.62-1.37.92-4.02.92-7.95v-10.42h22.82v5.84c0,4.88-.31,8.64-.92,11.26-.62,2.62-2.06,5.42-4.32,8.4s-5.13,5.21-8.61,6.7c-3.48,1.49-7.83,2.23-13.08,2.23s-9.57-.74-13.46-2.2c-3.89-1.47-6.92-3.49-9.08-6.05-2.17-2.56-3.66-5.38-4.5-8.46-.83-3.08-1.25-7.56-1.25-13.43v-23.05c0-6.91.93-12.36,2.8-16.35,1.87-3.99,4.92-7.05,9.17-9.17,4.25-2.12,9.13-3.19,14.65-3.19,6.75,0,12.32,1.28,16.71,3.84,4.39,2.56,7.47,5.96,9.23,10.19,1.77,4.23,2.65,10.18,2.65,17.84v10.48ZM78.24,45.45v-5.78c0-4.09-.22-6.73-.66-7.92-.44-1.19-1.33-1.79-2.68-1.79-1.67,0-2.7.51-3.1,1.52-.4,1.01-.6,3.74-.6,8.19v5.78h7.03Z" fill="#f5811e"/>
    </g>
    <g isolation="isolate">
      <path d="M134.3,17.39l-.95,10.4c3.49-7.45,8.56-11.39,15.19-11.83v27.82c-4.41,0-7.65.6-9.71,1.79-2.07,1.19-3.34,2.85-3.81,4.97-.48,2.12-.71,7.02-.71,14.68v31.21h-24.07V17.39h24.07Z" fill="#293d93"/>
    </g>
    <g isolation="isolate">
      <path d="M178.37,17.39l-.42,6.98c2.14-2.82,4.51-4.93,7.09-6.33,2.58-1.39,5.4-2.09,8.46-2.09,3.73,0,6.96,1,9.68,3.01,2.72,2,4.42,4.32,5.09,6.94.67,2.62,1.01,7.07,1.01,13.34v33.3c0,7.19-.43,12.3-1.28,15.34-.85,3.04-2.6,5.46-5.24,7.27-2.64,1.81-5.83,2.71-9.56,2.71-2.98,0-5.74-.7-8.28-2.09-2.54-1.39-4.87-3.46-6.97-6.21v18.12h-24.07V17.39h24.48ZM185.22,40.39c0-4.88-.18-7.84-.54-8.88-.36-1.03-1.35-1.55-2.98-1.55s-2.61.6-3.07,1.79c-.46,1.19-.68,4.07-.68,8.64v32.76c0,4.77.24,7.74.71,8.94s1.51,1.79,3.1,1.79,2.51-.55,2.89-1.64c.38-1.09.57-3.74.57-7.95v-33.9Z" fill="#f5811e"/>
      <path d="M238.72,48.01h-22.58v-5.3c0-6.12.7-10.83,2.11-14.15,1.41-3.32,4.24-6.24,8.49-8.79,4.25-2.54,9.77-3.81,16.56-3.81,8.14,0,14.28,1.44,18.41,4.32,4.13,2.88,6.61,6.41,7.45,10.6.83,4.19,1.25,12.82,1.25,25.88v39.67h-23.41v-7.04c-1.47,2.82-3.37,4.94-5.69,6.36s-5.09,2.12-8.31,2.12c-4.21,0-8.07-1.18-11.59-3.54-3.51-2.36-5.27-7.54-5.27-15.52v-6.49c0-5.92.93-9.95,2.8-12.09,1.87-2.14,6.49-4.65,13.88-7.51,7.9-3.1,12.13-5.18,12.69-6.25.56-1.07.83-3.26.83-6.55,0-4.13-.31-6.82-.92-8.07-.62-1.25-1.64-1.88-3.07-1.88-1.63,0-2.64.53-3.04,1.58-.4,1.05-.6,3.78-.6,8.19v8.28ZM246.34,58.86c-3.85,2.82-6.09,5.18-6.7,7.09-.62,1.91-.92,4.65-.92,8.22,0,4.09.27,6.73.8,7.92s1.6,1.79,3.19,1.79,2.49-.47,2.95-1.4c.46-.93.69-3.39.69-7.36v-16.26Z" fill="#f5811e"/>
      <path d="M303.17,17.39l-.42,7.28c1.75-2.9,3.88-5.08,6.4-6.53,2.52-1.45,5.43-2.18,8.73-2.18,4.13,0,7.51.97,10.13,2.92,2.62,1.95,4.31,4.4,5.06,7.36.75,2.96,1.13,7.89,1.13,14.8v55.4h-24.07v-54.75c0-5.44-.18-8.76-.54-9.95s-1.35-1.79-2.98-1.79c-1.71,0-2.78.69-3.22,2.05-.44,1.37-.66,5.03-.66,10.99v53.43h-24.07V17.39h24.48Z" fill="#f5811e"/>
    </g>
  </g>
  <g isolation="isolate">
    <g isolation="isolate">
      <path d="M15.64,125.22l1.7.43c-.36,1.39-1,2.46-1.92,3.19-.92.73-2.05,1.1-3.39,1.1s-2.5-.28-3.37-.84c-.87-.56-1.52-1.38-1.98-2.44-.45-1.07-.68-2.21-.68-3.44,0-1.33.25-2.5.76-3.49.51-.99,1.24-1.75,2.18-2.26s1.98-.77,3.11-.77c1.28,0,2.36.33,3.23.98s1.48,1.57,1.83,2.75l-1.67.39c-.3-.93-.73-1.61-1.29-2.04-.57-.43-1.28-.64-2.13-.64-.98,0-1.81.24-2.47.71-.66.47-1.13,1.11-1.39,1.9-.27.79-.4,1.62-.4,2.46,0,1.09.16,2.04.48,2.85.32.81.81,1.42,1.48,1.82.67.4,1.4.6,2.18.6.95,0,1.75-.27,2.41-.82.66-.55,1.1-1.36,1.34-2.44Z"/>
      <path d="M18.91,123.47c0-2.13.57-3.79,1.71-5s2.62-1.8,4.42-1.8c1.18,0,2.25.28,3.2.85s1.67,1.35,2.17,2.36c.5,1.01.75,2.16.75,3.44s-.26,2.46-.79,3.49-1.27,1.8-2.23,2.33-2,.79-3.11.79c-1.21,0-2.28-.29-3.23-.87-.95-.58-1.67-1.38-2.16-2.39-.49-1.01-.73-2.07-.73-3.2ZM20.66,123.5c0,1.54.42,2.76,1.25,3.65.83.89,1.87,1.33,3.12,1.33s2.33-.45,3.15-1.35,1.24-2.17,1.24-3.82c0-1.04-.18-1.95-.53-2.73-.35-.78-.87-1.38-1.55-1.81-.68-.43-1.44-.64-2.29-.64-1.2,0-2.23.41-3.1,1.24-.87.82-1.3,2.2-1.3,4.13Z"/>
      <path d="M33.3,129.71v-12.81h2.55l3.03,9.07c.28.85.48,1.48.61,1.9.15-.47.37-1.15.68-2.05l3.07-8.92h2.28v12.81h-1.63v-10.72l-3.72,10.72h-1.53l-3.71-10.91v10.91h-1.63Z"/>
      <path d="M48.3,129.71v-12.81h9.26v1.51h-7.57v3.92h7.09v1.5h-7.09v4.36h7.87v1.51h-9.56ZM51.79,116.12l1.16-2.45h2.06l-1.92,2.45h-1.3Z"/>
      <path d="M60.23,129.71v-12.81h5.68c1.14,0,2.01.12,2.6.35s1.07.64,1.42,1.22c.36.58.53,1.23.53,1.93,0,.91-.29,1.68-.88,2.3-.59.62-1.5,1.02-2.73,1.19.45.22.79.43,1.02.64.5.45.96,1.02,1.41,1.7l2.23,3.49h-2.13l-1.7-2.67c-.5-.77-.9-1.36-1.22-1.77-.32-.41-.61-.69-.86-.86s-.51-.28-.77-.34c-.19-.04-.51-.06-.94-.06h-1.97v5.69h-1.7ZM61.92,122.56h3.65c.77,0,1.38-.08,1.82-.24s.77-.42,1-.77c.23-.35.34-.74.34-1.15,0-.61-.22-1.1-.66-1.49s-1.13-.59-2.08-.59h-4.06v4.24Z"/>
      <path d="M82.27,125.22l1.7.43c-.36,1.39-1,2.46-1.92,3.19-.92.73-2.05,1.1-3.39,1.1s-2.5-.28-3.37-.84c-.87-.56-1.52-1.38-1.98-2.44-.45-1.07-.68-2.21-.68-3.44,0-1.33.25-2.5.76-3.49.51-.99,1.24-1.75,2.18-2.26s1.98-.77,3.11-.77c1.28,0,2.36.33,3.23.98s1.48,1.57,1.83,2.75l-1.67.39c-.3-.93-.73-1.61-1.29-2.04-.57-.43-1.28-.64-2.13-.64-.98,0-1.81.24-2.47.71-.66.47-1.13,1.11-1.39,1.9-.27.79-.4,1.62-.4,2.46,0,1.09.16,2.04.48,2.85.32.81.81,1.42,1.48,1.82.67.4,1.4.6,2.18.6.95,0,1.75-.27,2.41-.82.66-.55,1.1-1.36,1.34-2.44Z"/>
      <path d="M86.34,129.71v-12.81h1.7v12.81h-1.7Z"/>
      <path d="M90.51,123.47c0-2.13.57-3.79,1.71-5s2.62-1.8,4.42-1.8c1.18,0,2.25.28,3.2.85s1.67,1.35,2.17,2.36c.5,1.01.75,2.16.75,3.44s-.26,2.46-.79,3.49-1.27,1.8-2.23,2.33-2,.79-3.11.79c-1.21,0-2.28-.29-3.23-.87-.95-.58-1.67-1.38-2.16-2.39-.49-1.01-.73-2.07-.73-3.2ZM92.26,123.5c0,1.54.42,2.76,1.25,3.65.83.89,1.87,1.33,3.12,1.33s2.33-.45,3.15-1.35,1.24-2.17,1.24-3.82c0-1.04-.18-1.95-.53-2.73-.35-.78-.87-1.38-1.55-1.81-.68-.43-1.44-.64-2.29-.64-1.2,0-2.23.41-3.1,1.24-.87.82-1.3,2.2-1.3,4.13Z"/>
      <path d="M109.96,129.71v-12.81h9.26v1.51h-7.57v3.92h7.09v1.5h-7.09v4.36h7.87v1.51h-9.56Z"/>
    </g>
    <g isolation="isolate">
      <path d="M124.46,129.71l4.92-12.81h1.83l5.24,12.81h-1.93l-1.5-3.88h-5.36l-1.41,3.88h-1.8ZM128.16,124.45h4.34l-1.34-3.55c-.41-1.08-.71-1.96-.91-2.66-.16.82-.39,1.64-.69,2.45l-1.41,3.76Z"/>
    </g>
    <g isolation="isolate">
      <path d="M137.84,129.71v-12.81h5.68c1.14,0,2.01.12,2.6.35s1.07.64,1.42,1.22c.36.58.53,1.23.53,1.93,0,.91-.29,1.68-.88,2.3-.59.62-1.5,1.02-2.73,1.19.45.22.79.43,1.02.64.5.45.96,1.02,1.41,1.7l2.23,3.49h-2.13l-1.7-2.67c-.5-.77-.9-1.36-1.22-1.77-.32-.41-.61-.69-.86-.86s-.51-.28-.77-.34c-.19-.04-.51-.06-.94-.06h-1.97v5.69h-1.7ZM139.53,122.56h3.65c.77,0,1.38-.08,1.82-.24s.77-.42,1-.77c.23-.35.34-.74.34-1.15,0-.61-.22-1.1-.66-1.49s-1.13-.59-2.08-.59h-4.06v4.24Z"/>
    </g>
    <g isolation="isolate">
      <path d="M153.68,129.71v-11.3h-4.22v-1.51h10.16v1.51h-4.24v11.3h-1.7Z"/>
      <path d="M161.39,129.71v-12.81h9.26v1.51h-7.57v3.92h7.09v1.5h-7.09v4.36h7.87v1.51h-9.56Z"/>
    </g>
    <g isolation="isolate">
      <path d="M173.38,129.71v-12.81h8.64v1.51h-6.95v3.97h6.01v1.51h-6.01v5.82h-1.7Z"/>
    </g>
    <g isolation="isolate">
      <path d="M181.83,129.71l4.92-12.81h1.83l5.24,12.81h-1.93l-1.5-3.88h-5.36l-1.41,3.88h-1.8ZM185.53,124.45h4.34l-1.34-3.55c-.41-1.08-.71-1.96-.91-2.66-.16.82-.39,1.64-.69,2.45l-1.41,3.76Z"/>
    </g>
    <g isolation="isolate">
      <path d="M197.11,129.71v-11.3h-4.22v-1.51h10.16v1.51h-4.24v11.3h-1.7Z"/>
    </g>
    <g isolation="isolate">
      <path d="M203.94,123.47c0-2.13.57-3.79,1.71-5,1.14-1.2,2.62-1.8,4.42-1.8,1.18,0,2.25.28,3.2.85.95.57,1.67,1.35,2.17,2.36s.75,2.16.75,3.44-.26,2.46-.79,3.49-1.27,1.8-2.23,2.33c-.96.53-2,.79-3.11.79-1.21,0-2.28-.29-3.23-.87-.95-.58-1.67-1.38-2.16-2.39-.49-1.01-.73-2.07-.73-3.2ZM205.69,123.5c0,1.54.42,2.76,1.25,3.65.83.89,1.87,1.33,3.12,1.33s2.33-.45,3.15-1.35c.82-.9,1.24-2.17,1.24-3.82,0-1.04-.18-1.95-.53-2.73-.35-.78-.87-1.38-1.55-1.81-.68-.43-1.44-.64-2.29-.64-1.2,0-2.23.41-3.1,1.24-.87.82-1.3,2.2-1.3,4.13Z"/>
      <path d="M217.81,125.6l1.6-.14c.08.64.25,1.17.53,1.58.28.41.71.74,1.29,1,.58.25,1.24.38,1.97.38.65,0,1.22-.1,1.71-.29.5-.19.86-.46,1.11-.79.24-.33.36-.7.36-1.1s-.12-.75-.35-1.05c-.23-.3-.62-.55-1.15-.76-.34-.13-1.1-.34-2.28-.62-1.18-.28-2-.55-2.47-.8-.61-.32-1.07-.72-1.37-1.19-.3-.48-.45-1.01-.45-1.6,0-.65.18-1.25.55-1.81s.9-.99,1.61-1.28,1.49-.44,2.35-.44c.95,0,1.79.15,2.51.46.73.31,1.28.76,1.67,1.35.39.59.6,1.27.63,2.02l-1.63.12c-.09-.81-.38-1.42-.89-1.84-.5-.41-1.25-.62-2.23-.62s-1.77.19-2.24.56c-.47.38-.7.83-.7,1.36,0,.46.17.84.5,1.14.33.3,1.18.6,2.56.91s2.32.58,2.84.82c.75.34,1.3.78,1.65,1.31s.53,1.13.53,1.82-.2,1.32-.59,1.93c-.39.6-.95,1.07-1.68,1.41s-1.55.5-2.47.5c-1.16,0-2.13-.17-2.92-.51s-1.4-.85-1.84-1.53c-.45-.68-.68-1.45-.7-2.3Z"/>
      <path d="M235.3,129.71v-12.81h4.41c1,0,1.76.06,2.28.18.73.17,1.36.48,1.88.92.68.57,1.18,1.3,1.52,2.19.33.89.5,1.9.5,3.05,0,.97-.11,1.84-.34,2.59-.23.75-.52,1.37-.87,1.87s-.74.88-1.17,1.16c-.42.28-.93.5-1.53.64s-1.28.22-2.06.22h-4.62ZM236.99,128.2h2.74c.84,0,1.51-.08,1.99-.24.48-.16.86-.38,1.15-.66.4-.4.71-.94.94-1.62.22-.68.34-1.5.34-2.47,0-1.34-.22-2.37-.66-3.09-.44-.72-.97-1.2-1.6-1.45-.45-.17-1.19-.26-2.19-.26h-2.69v9.79Z"/>
      <path d="M248.26,129.71v-12.81h9.26v1.51h-7.57v3.92h7.09v1.5h-7.09v4.36h7.87v1.51h-9.56Z"/>
      <path d="M265.22,129.71v-12.81h8.64v1.51h-6.95v3.97h6.01v1.51h-6.01v5.82h-1.7Z"/>
      <path d="M276.1,129.71v-12.81h9.26v1.51h-7.57v3.92h7.09v1.5h-7.09v4.36h7.87v1.51h-9.56Z"/>
      <path d="M288.03,129.71v-12.81h5.68c1.14,0,2.01.12,2.6.35.59.23,1.07.64,1.42,1.22.36.58.53,1.23.53,1.93,0,.91-.29,1.68-.88,2.3-.59.62-1.5,1.02-2.73,1.19.45.22.79.43,1.02.64.5.45.96,1.02,1.41,1.7l2.23,3.49h-2.13l-1.7-2.67c-.5-.77-.9-1.36-1.22-1.77-.32-.41-.61-.69-.86-.86-.25-.16-.51-.28-.77-.34-.19-.04-.51-.06-.94-.06h-1.97v5.69h-1.7ZM289.73,122.56h3.65c.77,0,1.38-.08,1.82-.24.44-.16.77-.42,1-.77.23-.35.34-.74.34-1.15,0-.61-.22-1.1-.66-1.49-.44-.39-1.13-.59-2.08-.59h-4.06v4.24Z"/>
      <path d="M300.96,129.71v-12.81h5.68c1.14,0,2.01.12,2.6.35.59.23,1.07.64,1.42,1.22.36.58.53,1.23.53,1.93,0,.91-.29,1.68-.88,2.3-.59.62-1.5,1.02-2.73,1.19.45.22.79.43,1.02.64.5.45.96,1.02,1.41,1.7l2.23,3.49h-2.13l-1.7-2.67c-.5-.77-.9-1.36-1.22-1.77-.32-.41-.61-.69-.86-.86-.25-.16-.51-.28-.77-.34-.19-.04-.51-.06-.94-.06h-1.97v5.69h-1.7ZM302.66,122.56h3.65c.77,0,1.38-.08,1.82-.24.44-.16.77-.42,1-.77.23-.35.34-.74.34-1.15,0-.61-.22-1.1-.66-1.49-.44-.39-1.13-.59-2.08-.59h-4.06v4.24Z"/>
      <path d="M313.35,123.47c0-2.13.57-3.79,1.71-5,1.14-1.2,2.62-1.8,4.42-1.8,1.18,0,2.25.28,3.2.85.95.57,1.67,1.35,2.17,2.36s.75,2.16.75,3.44-.26,2.46-.79,3.49-1.27,1.8-2.23,2.33c-.96.53-2,.79-3.11.79-1.21,0-2.28-.29-3.23-.87-.95-.58-1.67-1.38-2.16-2.39-.49-1.01-.73-2.07-.73-3.2ZM315.09,123.5c0,1.54.42,2.76,1.25,3.65.83.89,1.87,1.33,3.12,1.33s2.33-.45,3.15-1.35c.82-.9,1.24-2.17,1.24-3.82,0-1.04-.18-1.95-.53-2.73-.35-.78-.87-1.38-1.55-1.81-.68-.43-1.44-.64-2.29-.64-1.2,0-2.23.41-3.1,1.24-.87.82-1.3,2.2-1.3,4.13Z"/>
    </g>
  </g>
  <rect y="103.25" width="147.69" height="4.41" fill="#293d93"/>
  <rect x="182.91" y="103.25" width="149.88" height="4.41" fill="#293d93"/>
</svg>